<svg width="55" height="55" viewBox="0 0 55 55" fill="none" xmlns="http://www.w3.org/2000/svg">
<g clip-path="url(#clip0_14_284)">
<path d="M27.5 55C42.6878 55 55 42.6878 55 27.5C55 12.3122 42.6878 0 27.5 0C12.3122 0 0 12.3122 0 27.5C0 42.6878 12.3122 55 27.5 55Z" fill="#00537F"/>
<path d="M44.8042 29.5874L43.8208 28.4143C41.1985 25.2571 38.5762 22.1345 35.9711 19.0118C35.9711 19.0118 35.9021 19.0118 35.8331 19.0118C29.674 19.0118 24.1361 19.0118 18.8914 19.0118C18.8396 19.0118 18.7189 19.0636 18.6844 19.1154C16.3726 21.962 14.078 24.8431 11.7835 27.7069L10.2826 29.5874C10.2826 29.5874 10.2653 29.6219 10.248 29.6219L27.5175 48.6511L44.8042 29.6047V29.5874ZM22.4454 30.5536H32.5896L27.5175 45.839L22.4454 30.5536ZM32.6587 40.163L31.589 39.6455L34.6254 30.5191H41.4055L32.6587 40.163ZM33.435 20.9096C33.8491 20.9096 34.2286 20.9096 34.6081 20.9096C34.9704 20.9096 35.2982 21.1684 35.4535 21.3581C36.9544 23.1351 38.4554 24.9293 39.9563 26.7236L40.4394 27.3101C40.5257 27.3964 40.5602 27.5172 40.5947 27.5862L40.7672 27.983L41.0432 28.6213H36.5059C36.1608 28.6213 35.7985 28.6213 35.4535 28.6213C35.1257 28.6213 34.5736 28.397 34.4184 27.9312C33.9181 26.4648 33.4177 24.9811 32.9174 23.4802L32.0721 20.9268H33.4522L33.435 20.9096ZM23.446 25.6022C23.86 24.3428 24.2913 23.0834 24.6881 21.8239C24.8952 21.2029 25.3092 20.9096 25.9648 20.9096C26.4824 20.9096 27.0172 20.9096 27.5175 20.9096C28.0523 20.9096 28.6044 20.9096 29.1392 20.9096C29.5015 20.9096 30.0881 21.1684 30.2606 21.6342C30.8644 23.3939 31.4682 25.2054 32.0376 26.9479L32.2273 27.5344C32.2791 27.6897 32.2619 27.845 32.2446 27.9485L32.1928 28.5868H22.5661L22.8076 27.5862C22.8422 27.4482 22.8594 27.3274 22.9112 27.2066L23.446 25.5849V25.6022ZM17.2524 23.9287C17.839 23.2041 18.4601 22.445 19.0467 21.6859C19.2537 21.4099 19.754 20.7888 20.7546 20.9096C20.9789 20.9268 21.2204 20.9268 21.4792 20.9096C21.738 20.9096 21.8933 20.9096 22.0658 20.9096H22.8767L22.6869 21.8585C22.6524 21.9965 22.6351 22.1 22.6006 22.2035L22.0658 23.808C21.6345 25.1019 21.2032 26.3785 20.7891 27.6724C20.5821 28.3108 20.1508 28.6213 19.4952 28.6213C18.3911 28.6041 17.3214 28.6213 16.1828 28.6213H13.5087L17.2869 23.946L17.2524 23.9287ZM23.2217 39.4384L22.9112 39.3522V39.3867L23.2217 39.5074L22.9457 40.7669L13.6467 30.5191H16.1483C17.4077 30.5191 18.5636 30.5191 19.7368 30.5191C20.1681 30.5191 20.5649 30.8986 20.6684 31.2264C21.531 33.797 22.3763 36.3848 23.239 38.9726C23.308 39.1969 23.2562 39.3694 23.239 39.4384H23.2217Z" fill="white"/>
<path d="M11.8351 15.2682C11.3693 14.3883 10.9208 13.4912 10.455 12.5596C10.0064 13.4739 9.59236 14.3711 9.12655 15.2164C8.98853 15.4752 8.747 15.6995 8.48822 15.8375C7.62561 16.3033 6.74575 16.7173 5.79688 17.2004C6.74575 17.6662 7.5911 18.063 8.41921 18.5116C8.7125 18.6841 9.00578 18.9601 9.16105 19.2534C9.60961 20.0815 10.0064 20.9441 10.455 21.8413C10.9208 20.9096 11.3521 20.0125 11.8351 19.1327C11.9732 18.8911 12.1802 18.6668 12.4217 18.5288C13.2671 18.063 14.1469 17.6662 15.0958 17.1832C14.1297 16.7001 13.2498 16.2688 12.3872 15.803C12.1629 15.6822 11.9559 15.4579 11.8351 15.2337V15.2682Z" fill="#C8D400"/>
<path d="M46.5291 15.8547C46.2876 15.7167 46.0633 15.4924 45.9426 15.2509C45.4595 14.3883 45.0282 13.4912 44.5624 12.5596C44.1138 13.4739 43.6998 14.3538 43.2512 15.1992C43.1132 15.4579 42.8372 15.7167 42.5784 15.8547C41.733 16.3205 40.8704 16.7346 39.9043 17.2177C40.8877 17.7007 41.7675 18.0975 42.6129 18.5633C42.8717 18.7014 43.1132 18.9429 43.2512 19.2017C43.717 20.0643 44.1138 20.9441 44.5796 21.8758C45.0627 20.9269 45.494 20.0298 45.9598 19.1499C46.0806 18.9256 46.2876 18.7014 46.5119 18.5806C47.3745 18.1148 48.2544 17.7007 49.2032 17.2349C48.2716 16.7519 47.3918 16.3378 46.5291 15.8547Z" fill="#C8D400"/>
<path d="M28.8459 8.97109C28.3801 8.12573 27.966 7.26312 27.5175 6.34875C27.0689 7.28037 26.6721 8.16024 26.2063 8.98834C26.051 9.26438 25.775 9.54041 25.499 9.67843C24.6536 10.127 23.791 10.5238 22.8594 10.9896C23.8255 11.4727 24.7226 11.904 25.6025 12.387C25.8268 12.5078 26.051 12.7148 26.1718 12.9391C26.6376 13.8017 27.0689 14.6988 27.5347 15.6477C28.0178 14.6816 28.4491 13.7845 28.9321 12.9046C29.0357 12.6976 29.2427 12.4905 29.4497 12.387C30.3296 11.9212 31.2267 11.4727 32.1756 10.9896C31.2784 10.541 30.4331 10.1615 29.6222 9.69568C29.3289 9.52316 29.0357 9.24712 28.8631 8.95384L28.8459 8.97109Z" fill="#C8D400"/>
</g>
<defs>
<clipPath id="clip0_14_284">
<rect width="55" height="55" fill="white"/>
</clipPath>
</defs>
</svg>
