<svg width="40" height="40" viewBox="0 0 40 40" fill="none" xmlns="http://www.w3.org/2000/svg">
<g clip-path="url(#clip0_15_266)">
<path d="M34.1422 34.1421C41.9527 26.3317 41.9527 13.6683 34.1422 5.85786C26.3317 -1.95262 13.6684 -1.95262 5.85796 5.85786C-1.95253 13.6683 -1.95253 26.3317 5.85796 34.1421C13.6684 41.9526 26.3317 41.9526 34.1422 34.1421Z" fill="#0085C0"/>
<path d="M28.1871 12.4473H11.8132C10.1151 12.4473 8.73926 13.8231 8.73926 15.5212V24.8061C8.73926 26.5041 10.1151 27.88 11.8132 27.88H28.1871C29.8852 27.88 31.261 26.5041 31.261 24.8061V15.5212C31.261 13.8231 29.8852 12.4473 28.1871 12.4473ZM17.6477 23.6766V16.9008L23.6704 20.0619C23.6704 20.0619 17.6477 23.5515 17.6477 23.6766Z" fill="white"/>
</g>
<defs>
<clipPath id="clip0_15_266">
<rect width="40" height="40" fill="white"/>
</clipPath>
</defs>
</svg>
